# xmcd
#
# Track frame offsets: 
#        150
#        15576
#        33891
#        47313
#        61765
#        83600
#        103052
#        117088
#        136231
#        158123
#        171973
#        190631
#        208617
#        225572
#        242994
#
# Disc length: 3415 seconds
#
# Revision: 0
# Processed by: cddbd v1.5.2PL0 Copyright (c) Steve Scherf et al.
# Submitted via: ExactAudioCopy v0.99pb4
#
DISCID=b10d550f
DTITLE=Muddy Fork Band - Yellow Sky
DYEAR=2010
DGENRE=Folk-Country
TTITLE0=Bailey's Woods
TTITLE1=There She Goes
TTITLE2=Poor Mary Alice
TTITLE3=Cold, Cold Ground
TTITLE4=Summer Hay
TTITLE5=Call Me
TTITLE6=Yellow Sky
TTITLE7=Wasting Away
TTITLE8=Better Man
TTITLE9=Like To Get Home
TTITLE10=Thru A Red Man's Eyes
TTITLE11=The 6:14
TTITLE12=Dirty Girl, Dirty Town
TTITLE13=Damnit Anyhow
TTITLE14=I'm Staying
EXTD=
EXTT0=
EXTT1=
EXTT2=
EXTT3=
EXTT4=
EXTT5=
EXTT6=
EXTT7=
EXTT8=
EXTT9=
EXTT10=
EXTT11=
EXTT12=
EXTT13=
EXTT14=
PLAYORDER=
